<svg xmlns="http://www.w3.org/2000/svg" class="w-full h-full touch-none cursor-copy" viewBox="-435.18822376203997 -570.12701537272 1050.4331189481552 1472.8899167860009" preserveAspectRatio="xMidYMid slice"><defs><filter id="crayon" x="-20%" y="-20%" width="140%" height="140%"><feTurbulence type="fractalNoise" baseFrequency="0.5" numOctaves="3" result="noise"/><feDisplacementMap in="SourceGraphic" in2="noise" scale="3" xChannelSelector="R" yChannelSelector="G"/></filter></defs><path d="M 124.66402189839954 28.53637437536713 Q 109.60807910573598 48.9030402748831 104.89796174651455 56.95422037919653 Q 100.18784438729313 65.00540048350996 95.9330396341629 74.77942001405665 Q 91.67823488103267 84.55343954460335 88.3218536539587 95.3731359469283 Q 84.96547242688474 106.19283234925325 82.55072873420478 117.26271672179296 Q 80.13598504152482 128.33260109433266 79.32108330311004 135.61568429408177 Q 78.50618156469525 142.8987674938309 78.30497123379702 162.8942396895079 Q 78.10376090289878 182.88971188518497 78.80649257635896 193.5246730302673 Q 79.50922424981914 204.15963417534962 81.38046954452395 211.92814510563886 Q 83.25171483922874 219.69665603592807 84.28631609962378 222.14665593864942 Q 85.32091736001883 224.59665584137073 86.12072949343192 225.02670551499483 Q 86.92054162684501 225.45675518861896 87.06972160812538 222.32432449197222 Q 87.21890158940575 219.19189379532546 85.49682101751597 207.32396828858447 Q 83.77474044562618 195.45604278184348 83.26272738228849 176.13351570079828 Q 82.75071431895081 156.81098861975306 83.33200488390878 147.5015222219145 Q 83.91329544886673 138.19205582407594 86.0569836941171 125.71118657462064 Q 88.20067193936745 113.23031732516534 92.59544666409184 99.25470643078654 Q 96.99022138881622 85.27909553640775 100.88535359667897 76.10577737320828 Q 104.78048580454171 66.93245921000882 113.95607849630959 52.34351090450964 Q 123.13167118807746 37.75456259901047 124.17732771523524 37.054048489181376 Q 125.22298424239303 36.35353437935228 128.4626870366165 35.72753040752805 Q 131.70238983084 35.10152643570382 132.68563618301673 36.37921742823209 Q 133.66888253519346 37.65690842076036 136.6730454859397 38.88251311596445 Q 139.67720843668593 40.10811781116854 140.87778721425138 41.5589333860379 Q 142.07836599181684 43.00974896090726 146.312075407983 46.222856250022936 Q 150.54578482414914 49.43596353913861 152.006040302916 51.546298813592465 Q 153.46629578168285 53.65663408804632 158.5038231870324 58.01683618197709 Q 163.54135059238195 62.377038275907864 166.0478709024586 65.48068336905334 Q 168.55439121253528 68.5843284621988 170.05962661269655 69.4543010537605 Q 171.56486201285784 70.32427364532221 175.64439582618752 76.24653976776969 Q 179.7239296395172 82.16880589021719 185.07807833876024 91.38150513525807 Q 190.4322270380033 100.59420438029895 193.3206463912096 106.59743395436398 Q 196.20906574441588 112.60066352842901 199.0811422639996 122.17407696330538 Q 201.95321878358334 131.74749039818175 203.2901512764546 138.95343493496145 Q 204.62708376932588 146.15937947174115 205.33791667065674 156.79527443490298 Q 206.0487495719876 167.4311693980648 205.41861767667024 178.07016691584812 Q 204.78848578135288 188.70916443363146 201.96671337034024 201.7321639053354 Q 199.14494095932764 214.75516337703934 198.19414529402962 216.46649588593544 Q 197.2433496287316 218.17782839483158 196.1249977037148 218.5785014537298 Q 195.006645778698 218.97917451262802 194.5088210536752 218.0507996363176 Q 194.01099632865245 217.12242476000722 195.25550524519616 211.98261884417502 Q 196.50001416173984 206.8428129283428 196.04079335405658 205.89069893163838 Q 195.5815725463733 204.938584934934 196.07491331704477 197.02244021452003 Q 196.5682540877162 189.10629549410606 195.87174990258154 179.1326789610643 Q 195.17524571744684 169.15906242802254 193.97857107254933 160.5788265718047 Q 192.78189642765182 151.99859071558691 190.5380862016885 143.87441004410744 Q 188.29427597572513 135.75022937262793 184.33748125768358 125.88102753521807 Q 180.38068653964203 116.0118256978082 177.84217431387822 112.94894715515807 Q 175.3036620881144 109.88606861250793 173.64614516928228 109.1292589033797 Q 171.98862825045015 108.37244919425146 176.86270087156743 120.75302963710593 Q 181.73677349268468 133.1336100799604 184.9501961234176 144.6851452042502 Q 188.16361875415055 156.23668032854 189.02388289282456 164.85308485102718 Q 189.88414703149857 173.4694893735144 190.16301684765023 188.79654050962074 Q 190.44188666380188 204.12359164572712 189.31502865296707 212.70561172516005 Q 188.18817064213226 221.287631804593 185.38177062634585 232.2617865999789 Q 182.57537061055945 243.23594139536485 179.37649234899962 251.28251954652825 Q 176.1776140874398 259.3290976976916 170.648229034251 269.207459191852 Q 165.11884398106218 279.0858206860124 164.65415453939693 281.0071213763031 Q 164.18946509773167 282.9284220665937 164.53626967055266 283.3918491245589 Q 164.88307424337364 283.85527618252416 173.0760421111201 272.64540861438695 Q 181.26900997886656 261.4355410462498 185.90726403520614 254.11785469877634 Q 190.54551809154572 246.80016835130291 194.75070434981467 238.47350987906998 Q 198.9558906080836 230.14685140683704 201.9840571592899 222.03136704337692 Q 205.01222371049622 213.91588267991682 207.1395569153517 205.52012268703066 Q 209.26689012020722 197.1243626941445 210.1592031395057 189.1790824427572 Q 211.0515161588042 181.2338021913699 211.1425074738508 171.23853287876324 Q 211.23349878889738 161.24326356615654 210.30531210032632 151.29235366401997 Q 209.37712541175526 141.3414437618834 207.48895949620658 132.88787147824215 Q 205.6007935806579 124.4342991946009 203.23588403581618 117.55049544724788 Q 200.8709744909745 110.66669169989487 196.07732618903236 101.14251224655293 Q 191.28367788709022 91.61833279321098 186.38047583838576 83.68502941989365 Q 181.4772737896813 75.75172604657632 173.1304578674879 66.23605674797648 Q 164.78364194529453 56.72038744937662 155.02480560500368 47.64443660527866 Q 145.26596926471282 38.56848576118071 137.6016004121412 33.266152775809566 Q 129.9372315595696 27.96381979043842 128.70425193944558 27.523912130966174 Q 127.47127231932156 27.084004471493927 126.06764710886054 27.81018942343053 L 124.66402189839954 28.53637437536713" stroke="#000000" stroke-width="1" fill="rgb(0, 0, 0)" stroke-linecap="round" stroke-linejoin="round" data-id="imported-0-1763976091723"/><path d="M 88.66478562827346 55.602466830313745 Q 77.19304210546221 70.30864897680219 70.3018517350325 80.93216016948466 Q 63.41066136460278 91.55567136216715 59.79872220474131 98.68784833958912 Q 56.186783044879846 105.8200253170111 53.34832906231385 113.29558490209122 Q 50.50987507974785 120.77114448717134 48.175490603457504 129.8017593790167 Q 45.84110612716716 138.832374270862 44.65278142312556 147.41229478546256 Q 43.464456719083955 155.9922153000631 43.24075897056606 164.65110752793728 Q 43.01706122204817 173.30999975581148 43.86102728526464 182.59901167223074 Q 44.70499334848111 191.88802358865001 46.485842916903536 200.36474805038472 Q 48.266692485325954 208.84147251211945 51.22921915305181 217.68582935188005 Q 54.19174582077766 226.53018619164067 57.87015492463472 234.37223478707634 Q 61.54856402849177 242.214283382512 66.4433464560152 250.15454359879865 Q 71.33812888353866 258.0948038150853 77.05202743760698 265.4690421040758 Q 82.7659259916753 272.84328039306627 89.69167729474185 280.04949856499127 Q 96.61742859780841 287.25571673691627 104.77175999682264 294.1245727829954 Q 112.92609139583686 300.9934288290745 119.94938091281688 305.705241912412 Q 126.97267042979688 310.4170549957495 129.38511314590184 308.27437431782784 Q 131.7975558620068 306.1316936399062 135.09449824591917 301.94344580402407 Q 138.39144062983155 297.75519796814194 146.08334490897664 285.2812789496543 Q 153.7752491881217 272.8073599311666 158.24733041893438 262.40180981264535 Q 162.71941164974703 251.99625969412406 166.73836732116888 239.28861913261355 Q 170.7573229925907 226.58097857110303 172.71383666060424 216.78226168853826 Q 174.6703503286178 206.9835448059735 175.66364387161303 195.02922078225674 Q 176.65693741460828 183.07489675853998 176.6534483121979 169.0791874136001 Q 176.64995920978748 155.08347806866018 175.6001544145161 143.13503974364502 Q 174.55034961924474 131.18660141862986 172.78910361849051 123.39635734752487 Q 171.0278576177363 115.60611327641988 170.16169964251247 113.81605318969572 Q 169.29554166728866 112.02599310297157 168.47212367074565 111.70124413320079 Q 167.64870567420266 111.37649516343 167.54725722423512 113.87677374394684 Q 167.44580877426756 116.37705232446368 169.32631900913384 133.6015383852043 Q 171.20682924400012 150.8260244459449 171.48692177184193 164.81875940737228 Q 171.76701429968378 178.81149436879963 170.11523252936183 196.0552213543486 Q 168.46345075903986 213.29894833989758 167.2312767858864 216.93871181994317 Q 165.99910281273293 220.57847529998875 165.95648693623696 222.45690224571902 Q 165.913871059741 224.3353291914493 165.21451659327863 226.17013727089451 Q 164.51516212681628 228.00494535033974 164.60088825408556 229.96187811753492 Q 164.68661438135484 231.91881088473014 159.9853672766578 243.6021883047368 Q 155.28412017196075 255.2855657247435 154.81212090816106 257.8161791516103 Q 154.34012164436137 260.3467925784771 148.81500082362282 270.99453116244484 Q 143.28988000288425 281.6422697464126 137.03605353173305 290.29586321788565 Q 130.78222706058182 298.9494566893588 128.50181584516412 300.228145585521 Q 126.22140462974639 301.50683448168326 124.25101186164906 301.4455468211366 Q 122.28061909355172 301.3842591605899 119.9449376477065 300.158054299082 Q 117.60925620186126 298.93184943757404 110.99782826780627 293.3441978999782 Q 104.38640033375128 287.7565463623823 101.84777316088181 284.8051090386585 Q 99.30914598801235 281.85367171493465 95.28145331933018 278.4651810819903 Q 91.25376065064803 275.076690449046 87.19464571565184 270.66225570033157 Q 83.13553078065566 266.2478209516172 78.4870393112962 259.81100987781474 Q 73.83854784193673 253.37419880401222 73.322583853304 251.70319441904033 Q 72.80661986467128 250.03219003406844 70.60023305944472 247.2503703887324 Q 68.39384625421818 244.46855074339632 67.3414887176935 241.36863685364483 Q 66.28913118116881 238.26872296389334 64.6818110530348 236.2518620654143 Q 63.074490924900815 234.23500116693526 61.158356242362686 229.98595190693567 Q 59.24222155982456 225.73690264693604 55.825972218097135 215.05930934966142 Q 52.409722876369706 204.38171605238676 51.402175892274045 199.14826181407471 Q 50.394628908178376 193.91480757576267 49.53737679056477 182.62029214524105 Q 48.680124672951166 171.32577671471944 49.03955206554201 160.0053849614236 Q 49.39897945813285 148.68499320812776 50.96822005151993 140.17135343255245 Q 52.53746064490701 131.65771365697714 55.48411240528108 122.7196871328852 Q 58.43076416565515 113.78166060879326 59.37998668317541 115.009029182592 Q 60.32920920069567 116.23639775639074 59.66474372387521 122.18594804934891 Q 59.00027824705475 128.13549834230707 58.860928786384896 142.13315670188788 Q 58.72157932571504 156.1308150614687 58.902409433058686 161.459760844875 Q 59.08323954040233 166.78870662828135 60.13076878987426 174.7171679819271 Q 61.17829803934619 182.6456293355729 63.284009490183 190.35752423879057 Q 65.38972094101982 198.0694191420083 68.50680416460042 206.1524284050451 Q 71.62388738818103 214.23543766808191 74.71779554597015 220.13061492837522 Q 77.81170370375926 226.02579218866853 79.63207422328881 227.47869512159798 Q 81.45244474281837 228.93159805452746 81.5335546757033 227.90309000796282 Q 81.61466460858821 226.87458196139818 76.43318782388083 213.22232032690192 Q 71.25171103917344 199.57005869240567 69.12472318425037 191.17342286360832 Q 66.99773532932731 182.77678703481098 65.59996326617517 172.20916251455623 Q 64.20219120302303 161.64153799430147 64.0538112739426 150.98208599509883 Q 63.90543134486216 140.3226339958962 64.97712288283383 129.71634859336464 Q 66.0488144208055 119.11006319083307 68.39442200697744 108.71239559551243 Q 70.74002959314939 98.31472800019179 74.5108429459446 88.34862066656505 Q 78.2816562987398 78.38251333293832 84.7221731451607 67.49248354319076 Q 91.1626899915816 56.602453753443214 91.79898630690099 54.55554079883871 Q 92.43528262222038 52.50862784423421 90.55003412524692 54.05554733727398 L 88.66478562827346 55.602466830313745" stroke="#000000" stroke-width="1" fill="rgb(0, 0, 0)" stroke-linecap="round" stroke-linejoin="round" data-id="imported-1-1763976092068"/><path d="M 142.17198821315793 124.81000011447695 Q 140.689200954618 126.88869855080037 138.65775091968655 127.7483348469507 Q 136.6263008847551 128.60797114310103 131.06483280488226 129.26432268989566 Q 125.50336472500942 129.9206742366903 119.32672867467954 129.0751914127332 Q 113.15009262434967 128.22970858877608 111.73381055987525 127.55920356978822 Q 110.31752849540082 126.88869855080037 109.5989629820146 125.84934933263867 Q 108.88039746862836 124.81000011447695 109.2871904321478 124.02035753623886 Q 109.69398339566723 123.23071495800076 111.42203801000846 122.31050329908928 Q 113.15009262434968 121.39029164017781 119.32672867467954 120.54480881622072 Q 125.50336472500942 119.69932599226362 131.06483280488226 120.35567753905825 Q 136.6263008847551 121.01202908585287 138.65775091968655 121.87166538200321 Q 140.689200954618 122.73130167815354 141.43059458388797 123.77065089631525 L 142.17198821315793 124.81000011447695" stroke="#000000" stroke-width="1" fill="#000000" stroke-linecap="round" stroke-linejoin="round" data-id="1763976142627"/><path d="M 141.92219123012222 143.89816879877347 Q 140.54344712959326 146.0023944216378 138.65453843075596 146.87258736982852 Q 136.7656297319187 147.74278031801924 131.59439477475067 148.40719210485577 Q 126.42315981758266 149.07160389169226 121.25192486041465 148.40719210485577 Q 116.08068990324662 147.74278031801924 114.19178120440934 146.87258736982852 Q 112.30287250557205 146.0023944216378 111.63472678424964 144.95028161020565 Q 110.96658106292723 143.89816879877347 111.34483046813281 143.09882911726964 Q 111.72307987333838 142.29948943576582 113.32988158490751 141.36797723692817 Q 114.93668329647664 140.43646503809052 120.67992155702964 139.5805993719726 Q 126.42315981758266 138.72473370585467 131.59439477475067 139.38914549269117 Q 136.7656297319187 140.0535572795277 138.65453843075596 140.92375022771841 Q 140.54344712959326 141.79394317590913 141.23281917985776 142.8460559873413 L 141.92219123012222 143.89816879877347" stroke="#000000" stroke-width="1" fill="#000000" stroke-linecap="round" stroke-linejoin="round" data-id="1763976145749"/><path d="M 142.87296902145908 165.5530500212538 Q 141.49422492093012 167.65727564411813 139.60531622209282 168.52746859230882 Q 137.71640752325555 169.39766154049954 132.5451725660875 170.06207332733607 Q 127.37393760891945 170.7264851141726 122.20270265175142 170.06207332733607 Q 117.0314676945834 169.39766154049957 115.14255899574611 168.52746859230885 Q 113.25365029690883 167.65727564411813 112.58550457558641 166.60516283268595 Q 111.91735885426401 165.5530500212538 112.29560825946959 164.75371033974997 Q 112.67385766467515 163.95437065824615 114.28065937624429 163.0228584594085 Q 115.88746108781342 162.09134626057084 121.63069934836643 161.23548059445292 Q 127.37393760891945 160.379614928335 132.5451725660875 161.04402671517153 Q 137.71640752325555 161.70843850200802 139.60531622209282 162.57863145019874 Q 141.49422492093012 163.44882439838946 142.18359697119462 164.50093720982164 L 142.87296902145908 165.5530500212538" stroke="#000000" stroke-width="1" fill="#000000" stroke-linecap="round" stroke-linejoin="round" data-id="1763976173111c99z8"/><path d="M 144.13744534963138 187.76561753144173 Q 142.75870124910242 189.86984315430607 140.86979255026512 190.7400361024968 Q 138.98088385142785 191.6102290506875 133.8096488942598 192.27464083752403 Q 128.63841393709174 192.93905262436053 122.89517567653874 192.0831869582426 Q 117.15193741598573 191.22732129212469 115.83503202053343 190.54858222321536 Q 114.51812662508114 189.86984315430607 113.84998090375873 188.81773034287392 Q 113.18183518243632 187.76561753144173 113.84998090375872 186.71350472000955 Q 114.51812662508112 185.6613919085774 116.40703532391841 184.79119896038668 Q 118.29594402275569 183.921006012196 123.46717897992372 183.25659422535946 Q 128.63841393709174 182.59218243852294 133.8096488942598 183.25659422535944 Q 138.98088385142785 183.92100601219596 140.86979255026512 184.79119896038668 Q 142.75870124910242 185.6613919085774 143.4480732993669 186.71350472000955 L 144.13744534963138 187.76561753144173" stroke="#000000" stroke-width="1" fill="#000000" stroke-linecap="round" stroke-linejoin="round" data-id="1763976182209d47hu"/></svg>